<svg width="16" height="16" viewBox="0 0 16 16" fill="none" xmlns="http://www.w3.org/2000/svg">
<path d="M11.3333 6.66667L10 2.66667M4.66667 6.66667L6 2.66667M7.33331 13.3333H4.82931C4.35158 13.3333 3.88963 13.1623 3.52707 12.8512C3.1645 12.5401 2.92526 12.1095 2.85265 11.6373L2.01598 6.86933C1.98676 6.67932 1.99897 6.48524 2.05178 6.30039C2.1046 6.11554 2.19676 5.9443 2.32194 5.7984C2.44713 5.65251 2.60239 5.53541 2.77708 5.45513C2.95176 5.37486 3.14174 5.33331 3.33398 5.33333H12.6666C12.8589 5.33331 13.0489 5.37486 13.2236 5.45513C13.3982 5.53541 13.5535 5.65251 13.6787 5.7984C13.8039 5.9443 13.896 6.11554 13.9488 6.30039C14.0017 6.48524 14.0139 6.67932 13.9846 6.86933L13.6653 8.68867M10 12.6667L11.3333 14L14 11.3333M6.66667 9.33333C6.66667 9.68696 6.80714 10.0261 7.05719 10.2761C7.30724 10.5262 7.64638 10.6667 8 10.6667C8.35362 10.6667 8.69276 10.5262 8.94281 10.2761C9.19286 10.0261 9.33333 9.68696 9.33333 9.33333C9.33333 8.97971 9.19286 8.64057 8.94281 8.39053C8.69276 8.14048 8.35362 8 8 8C7.64638 8 7.30724 8.14048 7.05719 8.39053C6.80714 8.64057 6.66667 8.97971 6.66667 9.33333Z" stroke="#7D7D7D" stroke-width="1.25" stroke-linecap="round" stroke-linejoin="round"/>
</svg>
