<svg width="67" height="67" viewBox="0 0 67 67" fill="none" xmlns="http://www.w3.org/2000/svg">
<path opacity="0.21" d="M43.4121 0.590063C56.1147 0.590063 66.4121 10.8875 66.4121 23.5901V43.553C66.412 56.2554 56.1146 66.553 43.4121 66.553H23.458C10.7555 66.553 0.458089 56.2554 0.458008 43.553V23.5901C0.458008 10.8875 10.7555 0.590063 23.458 0.590063H43.4121Z" fill="#8280FF"/>
<path opacity="0.587821" d="M42.2293 27.708C44.6575 27.7081 46.6257 29.6769 46.6258 32.1054C46.6258 34.534 44.6576 36.5028 42.2293 36.5029C39.8009 36.5029 37.8318 34.5341 37.8318 32.1054C37.8319 29.6768 39.801 27.708 42.2293 27.708ZM29.0379 20.3789C32.2757 20.3789 34.9011 23.004 34.9012 26.2422C34.9012 29.4804 32.2757 32.1054 29.0379 32.1054C25.8002 32.1053 23.1756 29.4803 23.1756 26.2422C23.1756 23.0041 25.8002 20.379 29.0379 20.3789Z" fill="#8280FF"/>
<path d="M41.6462 37.9718C46.6382 38.027 50.7144 40.5501 51.0212 45.8849C51.0335 46.1002 51.0198 46.7647 50.2253 46.7648H44.5739C44.5739 43.4662 43.4848 40.4212 41.6462 37.9718ZM29.0134 35.0373C36.0306 35.0373 41.7966 38.3986 42.2263 45.591C42.2434 45.8775 42.2257 46.7638 41.1247 46.7638H16.9138C16.5462 46.7638 15.8174 45.9711 15.8483 45.59C16.4165 38.5942 22.0936 35.0374 29.0134 35.0373Z" fill="#8280FF"/>
</svg>
