<svg width="16" height="16" viewBox="0 0 16 16" fill="none" xmlns="http://www.w3.org/2000/svg">
<path d="M6.66667 2.66667L9.33334 13.3333M8.00001 8.00001L2.66667 9.33334M2.66667 4.00001C2.66667 3.64638 2.80715 3.30724 3.0572 3.0572C3.30724 2.80715 3.64638 2.66667 4.00001 2.66667H12C12.3536 2.66667 12.6928 2.80715 12.9428 3.0572C13.1929 3.30724 13.3333 3.64638 13.3333 4.00001V12C13.3333 12.3536 13.1929 12.6928 12.9428 12.9428C12.6928 13.1929 12.3536 13.3333 12 13.3333H4.00001C3.64638 13.3333 3.30724 13.1929 3.0572 12.9428C2.80715 12.6928 2.66667 12.3536 2.66667 12V4.00001Z" stroke="#FFA500" stroke-width="1.25" stroke-linecap="round" stroke-linejoin="round"/>
</svg>
