<svg width="68" height="65" viewBox="0 0 68 65" fill="none" xmlns="http://www.w3.org/2000/svg">
<path opacity="0.21" d="M44.2294 0.0931664C56.9317 0.093371 67.2294 10.3907 67.2294 23.0932V41.1928C67.2292 53.8951 56.9317 64.1926 44.2294 64.1928H23.5878C10.8853 64.1928 0.587894 53.8952 0.587769 41.1928V23.0932C0.587769 10.3906 10.8852 0.0931664 23.5878 0.0931664H44.2294Z" fill="#4AD991"/>
<path d="M21.8142 43.7757H47.7303C48.6845 43.7757 49.458 44.5197 49.458 45.4375C49.458 46.3554 48.6845 47.0994 47.7303 47.0994H20.0865C19.1323 47.0994 18.3588 46.3554 18.3588 45.4375V18.8482C18.3588 17.9304 19.1323 17.1863 20.0865 17.1863C21.0407 17.1863 21.8142 17.9304 21.8142 18.8482V43.7757Z" fill="#4AD991"/>
<path opacity="0.5" d="M28.2579 36.6031C27.6053 37.2727 26.5119 37.3066 25.8158 36.6789C25.1197 36.0512 25.0844 34.9995 25.737 34.3299L32.216 27.6826C32.8472 27.035 33.896 26.9789 34.598 27.5551L39.7116 31.7523L46.3742 23.6349C46.9655 22.9145 48.0519 22.7915 48.8009 23.3603C49.5498 23.929 49.6776 24.974 49.0863 25.6943L41.3115 35.1668C40.7043 35.9067 39.5795 36.0131 38.834 35.4012L33.6092 31.1128L28.2579 36.6031Z" fill="#4AD991"/>
</svg>
